<svg width="33" height="32" viewBox="0 0 33 32" fill="none" xmlns="http://www.w3.org/2000/svg">
<path d="M31.7458 27.6774C31.2869 28.7543 30.5601 29.6996 29.6325 30.4258C28.9545 30.9515 28.1831 31.3476 27.3577 31.5942C26.076 31.8995 24.7586 32.0335 23.4407 31.9925H8.91679C7.60334 32.0344 6.2902 31.9004 5.01324 31.5942C4.17794 31.352 3.39686 30.9554 2.71149 30.4258C1.81108 29.7209 1.09938 28.8092 0.638574 27.7703C0.141756 26.2817 -0.0682538 24.7146 0.0193896 23.1498V8.78379C-0.052211 7.24913 0.16222 5.71454 0.652034 4.25622C1.10526 3.20921 1.8125 2.28817 2.71149 1.5742C3.39283 1.04603 4.16921 0.649608 4.99978 0.405802C6.27673 0.0996055 7.58988 -0.0343881 8.90334 0.00748285H23.4811C24.7989 -0.0334759 26.1164 0.100497 27.3981 0.405802C28.2092 0.656827 28.9667 1.05288 29.6325 1.5742C30.533 2.27914 31.2446 3.19084 31.7054 4.22967C32.194 5.69723 32.4039 7.2411 32.3247 8.78379V23.1498C32.4136 24.6812 32.2174 26.2157 31.7458 27.6774Z" fill="url(#paint0_linear_1840_107)"/>
<path d="M18.6358 18.6642C18.2824 18.3435 17.8673 18.096 17.4151 17.9363C16.9629 17.7766 16.4828 17.7081 16.0032 17.7347C15.5287 17.7121 15.0542 17.7825 14.6074 17.9422C14.1607 18.1017 13.7505 18.3471 13.4007 18.6642C13.1223 18.9359 12.9525 19.2972 12.922 19.6822C12.8275 20.5749 12.8275 21.4749 12.922 22.3675C13.0117 23.4593 13.1912 24.9052 13.4305 26.3806C13.5245 27.0628 13.6644 27.7381 13.8493 28.4019C14.0154 28.8042 14.3093 29.1425 14.6869 29.366C15.0645 29.5895 15.5054 29.6861 15.9435 29.6413C16.3835 29.687 16.8267 29.591 17.2069 29.3676C17.5871 29.1442 17.8837 28.8054 18.0524 28.4019C18.2374 27.7381 18.3773 27.0628 18.4713 26.3806C18.6956 24.9052 18.8751 23.4298 18.9649 22.3675C19.0593 21.4749 19.0593 20.5749 18.9649 19.6822C18.976 19.3159 18.8599 18.9567 18.6358 18.6642ZM13.1015 13.6627C13.1015 14.2462 13.2769 14.8168 13.6056 15.302C13.9344 15.7873 14.4016 16.1655 14.9482 16.3888C15.4948 16.6122 16.0963 16.6706 16.6766 16.5567C17.2569 16.4429 17.79 16.1619 18.2084 15.7491C18.6267 15.3365 18.9116 14.8107 19.027 14.2383C19.1425 13.6659 19.0833 13.0726 18.8568 12.5335C18.6304 11.9942 18.247 11.5333 17.755 11.2091C17.2631 10.8849 16.6846 10.7119 16.093 10.7119C15.2996 10.7119 14.5387 11.0227 13.9777 11.5761C13.4167 12.1295 13.1015 12.88 13.1015 13.6627ZM16.0032 2.19875C13.0218 2.21227 10.1407 3.26382 7.86848 5.16797C5.59619 7.07212 4.07853 9.70655 3.58314 12.6067C3.08775 15.5068 3.64646 18.4863 5.16073 21.0198C6.67498 23.5533 9.04756 25.4779 11.86 26.4544C11.8883 26.4618 11.918 26.4623 11.9465 26.4558C11.9751 26.4493 12.0016 26.4359 12.0236 26.4171C12.0458 26.3981 12.0629 26.3742 12.0735 26.3473C12.0841 26.3203 12.0878 26.2913 12.0844 26.2626C12.0096 25.8347 11.9497 25.4069 11.8899 24.9938C11.884 24.9193 11.857 24.8481 11.8121 24.7881C11.7671 24.7281 11.706 24.6818 11.6356 24.6544C9.31878 23.6399 7.4264 21.8698 6.27656 19.6414C5.12673 17.413 4.78944 14.8621 5.32139 12.4174C5.85334 9.97272 7.2221 7.78305 9.19776 6.21635C11.1733 4.64965 13.6354 3.80137 16.1703 3.81404C18.7052 3.82672 21.1584 4.69956 23.1178 6.28593C25.0772 7.8723 26.4234 10.0756 26.9302 12.5255C27.437 14.9754 27.0736 17.5227 25.9009 19.7395C24.7282 21.9563 22.8177 23.7074 20.4906 24.6987C20.4202 24.7261 20.359 24.7724 20.3141 24.8323C20.2692 24.8924 20.2422 24.9636 20.2363 25.038C20.2363 25.4511 20.1166 25.879 20.0418 26.3069C20.0384 26.3355 20.0421 26.3646 20.0527 26.3916C20.0633 26.4185 20.0804 26.4424 20.1026 26.4613C20.1246 26.4802 20.1511 26.4935 20.1797 26.5C20.2081 26.5066 20.2379 26.5061 20.2662 26.4986C23.1216 25.5425 25.5371 23.6119 27.0775 21.0548C28.6178 18.4975 29.1815 15.4819 28.6674 12.5509C28.1532 9.61996 26.5948 6.96652 24.273 5.06854C21.9511 3.17055 19.0184 2.15285 16.0032 2.19875ZM15.7789 7.92327C17.1749 7.86917 18.5544 8.23733 19.7323 8.97847C20.9101 9.71962 21.8301 10.7983 22.3688 12.0698C22.9076 13.3412 23.0393 14.7449 22.7463 16.0923C22.4535 17.4398 21.7498 18.6667 20.7299 19.6085C20.6761 19.6632 20.6339 19.7278 20.6056 19.7988C20.5773 19.8697 20.5637 19.9454 20.5654 20.0216C20.5976 20.5129 20.5976 21.0057 20.5654 21.497C20.5664 21.5276 20.5754 21.5574 20.5916 21.5835C20.6077 21.6097 20.6305 21.6312 20.6575 21.6461C20.6847 21.661 20.7153 21.6686 20.7463 21.6683C20.7773 21.668 20.8077 21.6599 20.8346 21.6446C22.3337 20.6383 23.4663 19.1845 24.0663 17.4966C24.6663 15.8088 24.7021 13.9756 24.1684 12.2662C23.6346 10.5568 22.5595 9.06118 21.1007 7.99879C19.6419 6.93634 17.8764 6.36305 16.0631 6.36305C14.2498 6.36305 12.4842 6.93634 11.0255 7.99879C9.56673 9.06118 8.49159 10.5568 7.95783 12.2662C7.42409 13.9756 7.45985 15.8088 8.05985 17.4966C8.65984 19.1845 9.79253 20.6383 11.2916 21.6446C11.3173 21.6612 11.3471 21.6703 11.3778 21.671C11.4085 21.6718 11.4388 21.664 11.4652 21.6487C11.4916 21.6333 11.5133 21.6111 11.5275 21.5842C11.5417 21.5574 11.5482 21.5272 11.5459 21.497C11.5459 20.9954 11.5459 20.538 11.5459 20.0216C11.5536 19.9448 11.5428 19.8673 11.5141 19.7955C11.4855 19.7236 11.44 19.6596 11.3813 19.6085C10.3983 18.6902 9.71252 17.5058 9.41012 16.2041C9.10772 14.9024 9.20227 13.5415 9.68184 12.2926C10.1614 11.0438 11.0046 9.96264 12.1054 9.18518C13.2062 8.40782 14.5155 7.96876 15.8687 7.92327H15.7789Z" fill="white"/>
<defs>
<linearGradient id="paint0_linear_1840_107" x1="16.199" y1="0.00748285" x2="16.199" y2="31.9261" gradientUnits="userSpaceOnUse">
<stop stop-color="#F452FF"/>
<stop offset="1" stop-color="#832BC1"/>
</linearGradient>
</defs>
</svg>
