<svg width="34" height="32" viewBox="0 0 34 32" fill="none" xmlns="http://www.w3.org/2000/svg">
<path d="M33.3053 16C33.3053 24.8889 25.8809 32 16.8933 32C7.90581 32 0.351074 24.8889 0.351074 16C0.351074 7.11112 7.77555 0 16.763 0C25.7506 0 33.3053 7.11112 33.3053 16Z" fill="url(#paint0_linear_1840_132)"/>
<path d="M4.35773 17.1932C4.36455 17.1356 4.40641 17.0952 4.45916 17.0952C4.50999 17.0952 4.55212 17.1355 4.56001 17.1929L4.77913 18.5839L4.56001 19.9512C4.55187 20.0085 4.51025 20.0484 4.45916 20.0484C4.40639 20.0484 4.36455 20.0083 4.35773 19.9507L4.17285 18.5839L4.35773 17.1932Z" fill="white"/>
<path d="M5.39228 16.2344C5.44557 16.2344 5.48879 16.2756 5.49751 16.3353L5.77995 18.5839L5.49723 20.7832C5.48854 20.8428 5.44529 20.8843 5.39228 20.8843C5.33847 20.8843 5.29414 20.8417 5.28707 20.7827L5.03857 18.5839L5.28707 16.3353C5.2944 16.277 5.33872 16.2344 5.39228 16.2344Z" fill="white"/>
<path d="M9.21697 14.4489C9.22176 14.3439 9.30615 14.2612 9.408 14.2612C9.50946 14.2612 9.59345 14.3439 9.59944 14.4489L9.82323 18.5858L9.59944 21.2596V21.2588C9.59345 21.3634 9.50946 21.4461 9.408 21.4461C9.30615 21.4461 9.22206 21.3637 9.21697 21.2593L9.01904 18.5858L9.21697 14.4489Z" fill="white"/>
<path d="M7.23563 15.8435C7.24191 15.7608 7.3058 15.699 7.38409 15.699C7.46157 15.699 7.52545 15.7608 7.53227 15.8429L7.78565 18.5845L7.53227 21.2365C7.52545 21.3186 7.46157 21.3805 7.38409 21.3805C7.30577 21.3805 7.24161 21.3186 7.23563 21.2365L7.0127 18.5845L7.23563 15.8435Z" fill="white"/>
<path d="M11.6994 21.2155C11.6942 21.3447 11.5915 21.4457 11.465 21.4457C11.3378 21.4457 11.2347 21.3445 11.2307 21.2163L11.0586 18.5867L11.2307 13.0796C11.2348 12.9504 11.3378 12.8491 11.4653 12.8491C11.5918 12.8491 11.6945 12.9501 11.6997 13.0793L11.8935 18.5869L11.6994 21.2155Z" fill="white"/>
<path d="M15.9968 21.1417C15.9936 21.3162 15.85 21.4582 15.676 21.4582C15.502 21.4582 15.3579 21.3162 15.3552 21.1433C15.3552 21.1433 15.2341 18.5906 15.2341 18.5865L15.3552 12.2279C15.3579 12.0532 15.5017 11.9114 15.6759 11.9114C15.85 11.9114 15.9938 12.0534 15.9968 12.2277L16.1322 18.5887L15.9968 21.1417Z" fill="white"/>
<path d="M13.832 21.1745C13.8279 21.3279 13.7057 21.4483 13.5543 21.4483C13.4018 21.4483 13.2797 21.3279 13.2764 21.1761L13.1296 18.588L13.2762 13.0402C13.2794 12.8867 13.4016 12.7666 13.554 12.7666C13.7055 12.7666 13.8276 12.8867 13.8317 13.0402L13.9966 18.5877L13.832 21.1764V21.1745Z" fill="white"/>
<path d="M8.56174 21.2585C8.55495 21.3524 8.48205 21.4238 8.39208 21.4238C8.3007 21.4238 8.22812 21.3524 8.22214 21.2582L8.01196 18.5845L8.22214 16.0419C8.22784 15.9474 8.3007 15.876 8.39208 15.876C8.48235 15.876 8.55515 15.9469 8.56174 16.0408L8.80041 18.5845L8.56174 21.2585Z" fill="white"/>
<path d="M6.51087 21.1549C6.50325 21.226 6.44997 21.2775 6.3842 21.2775C6.31729 21.2775 6.26401 21.2257 6.25747 21.1544L6.02148 18.5841L6.25747 15.9163C6.26427 15.8451 6.31755 15.7935 6.38417 15.7935C6.44995 15.7935 6.50323 15.8449 6.51112 15.9163L6.77893 18.5841L6.51087 21.1549Z" fill="white"/>
<path d="M14.3115 13.2432C14.3147 13.0772 14.4467 12.9478 14.6111 12.9478C14.7753 12.9478 14.9064 13.0772 14.9102 13.2426L15.0603 18.5884L14.9102 21.1603V21.1582C14.9064 21.324 14.7753 21.4533 14.6111 21.4533C14.4464 21.4533 14.3148 21.3238 14.3115 21.1601L14.1777 18.5881L14.3115 13.2432Z" fill="white"/>
<path d="M10.6455 21.2421C10.6401 21.3592 10.5463 21.451 10.4326 21.451C10.3179 21.451 10.2244 21.3592 10.2198 21.2432L10.0347 18.5864L10.2195 13.5033C10.2244 13.3862 10.3179 13.2944 10.4326 13.2944C10.5463 13.2944 10.6398 13.3859 10.6455 13.5033L10.8543 18.5864L10.6455 21.2421Z" fill="white"/>
<path d="M12.7614 21.2005V21.2001C12.7563 21.3406 12.6444 21.4508 12.5055 21.4508C12.366 21.4508 12.2535 21.3402 12.2497 21.2002L12.0901 18.587L12.2494 12.8941C12.2532 12.7525 12.3657 12.6418 12.5055 12.6418C12.6444 12.6418 12.757 12.7528 12.7614 12.8941L12.9407 18.5873L12.7614 21.1991V21.2001C12.7614 21.1999 12.7614 21.1996 12.7614 21.1994V21.2005Z" fill="white"/>
<path d="M25.1119 15.5447C25.4817 15.391 25.8875 15.3056 26.313 15.3056C28.0278 15.3056 29.4178 16.6847 29.4179 18.3857C29.4179 20.0866 28.0275 21.4654 26.3128 21.4654C26.2573 21.4654 17.7134 21.4611 17.7055 21.4603C17.52 21.4418 17.3726 21.2847 17.3701 21.0963V11.3222C17.3723 11.1426 17.4347 11.05 17.6691 10.9601C18.272 10.7288 18.9549 10.592 19.6554 10.592C22.518 10.592 24.8648 12.7692 25.1119 15.5447Z" fill="white"/>
<path d="M16.3935 11.6519C16.3962 11.4653 16.5496 11.3135 16.7363 11.3135C16.9225 11.3135 17.0758 11.4653 17.0785 11.6514L17.2311 18.5894L17.0785 21.1074V21.1045C17.0758 21.2911 16.9225 21.4427 16.7363 21.4427C16.5496 21.4427 16.3962 21.2911 16.3938 21.1072L16.2532 18.5894L16.3935 11.6519Z" fill="white"/>
<defs>
<linearGradient id="paint0_linear_1840_132" x1="16.8282" y1="0" x2="16.8282" y2="32" gradientUnits="userSpaceOnUse">
<stop stop-color="#FF7602"/>
<stop offset="1" stop-color="#FF3502"/>
</linearGradient>
</defs>
</svg>
