<svg width="33" height="32" viewBox="0 0 33 32" fill="none" xmlns="http://www.w3.org/2000/svg">
<path d="M14.6196 10V14.8492V16.7874V21.6364H18.6931V16.7874V14.8492V10H14.6196Z" fill="#FF7602"/>
<path d="M2.40343 16.9124C3.52828 16.9124 4.44015 16.0169 4.44015 14.9124C4.44015 13.8078 3.52828 12.9124 2.40343 12.9124C1.27857 12.9124 0.366699 13.8078 0.366699 14.9124C0.366699 16.0169 1.27857 16.9124 2.40343 16.9124Z" fill="#0066D9"/>
<path d="M2.40343 19.0945C3.52828 19.0945 4.44015 18.1991 4.44015 17.0945C4.44015 15.9899 3.52828 15.0945 2.40343 15.0945C1.27857 15.0945 0.366699 15.9899 0.366699 17.0945C0.366699 18.1991 1.27857 19.0945 2.40343 19.0945Z" fill="#0066D9"/>
<path d="M4.44015 14.9128H0.366699V17.0947H4.44015V14.9128Z" fill="#0066D9"/>
<path d="M30.9168 19.0945C32.0417 19.0945 32.9535 18.1991 32.9535 17.0945C32.9535 15.9899 32.0417 15.0945 30.9168 15.0945C29.792 15.0945 28.8801 15.9899 28.8801 17.0945C28.8801 18.1991 29.792 19.0945 30.9168 19.0945Z" fill="#4285F4"/>
<path d="M30.9168 16.9124C32.0417 16.9124 32.9535 16.0169 32.9535 14.9124C32.9535 13.8078 32.0417 12.9124 30.9168 12.9124C29.792 12.9124 28.8801 13.8078 28.8801 14.9124C28.8801 16.0169 29.792 16.9124 30.9168 16.9124Z" fill="#4285F4"/>
<path d="M28.8801 17.0947H32.9535V14.9128H28.8801V17.0947Z" fill="#4285F4"/>
<path d="M9.43857 23.4583C10.5634 23.4583 11.4753 22.5628 11.4753 21.4583C11.4753 20.3537 10.5634 19.4583 9.43857 19.4583C8.31372 19.4583 7.40186 20.3537 7.40186 21.4583C7.40186 22.5628 8.31372 23.4583 9.43857 23.4583Z" fill="#EA4335"/>
<path d="M9.43857 25.6402C10.5634 25.6402 11.4753 24.7448 11.4753 23.6402C11.4753 22.5357 10.5634 21.6401 9.43857 21.6401C8.31372 21.6401 7.40186 22.5357 7.40186 23.6402C7.40186 24.7448 8.31372 25.6402 9.43857 25.6402Z" fill="#EA4335"/>
<path d="M11.4753 21.4585H7.40186V23.6403H11.4753V21.4585Z" fill="#EA4335"/>
<path d="M9.43857 10.3672C10.5634 10.3672 11.4753 9.47174 11.4753 8.3672C11.4753 7.26262 10.5634 6.36719 9.43857 6.36719C8.31372 6.36719 7.40186 7.26262 7.40186 8.3672C7.40186 9.47174 8.31372 10.3672 9.43857 10.3672Z" fill="#EA4335"/>
<path d="M9.43857 17.4578C10.5634 17.4578 11.4753 16.5624 11.4753 15.4578C11.4753 14.3532 10.5634 13.4578 9.43857 13.4578C8.31372 13.4578 7.40186 14.3532 7.40186 15.4578C7.40186 16.5624 8.31372 17.4578 9.43857 17.4578Z" fill="#EA4335"/>
<path d="M11.4753 8.36694H7.40186V15.5034H11.4753V8.36694Z" fill="#EA4335"/>
<path d="M23.8809 12.5491C25.0058 12.5491 25.9176 11.6537 25.9176 10.5491C25.9176 9.44451 25.0058 8.54907 23.8809 8.54907C22.7561 8.54907 21.8442 9.44451 21.8442 10.5491C21.8442 11.6537 22.7561 12.5491 23.8809 12.5491Z" fill="#34A853"/>
<path d="M23.8809 10.3672C25.0058 10.3672 25.9176 9.47174 25.9176 8.3672C25.9176 7.26262 25.0058 6.36719 23.8809 6.36719C22.7561 6.36719 21.8442 7.26262 21.8442 8.3672C21.8442 9.47174 22.7561 10.3672 23.8809 10.3672Z" fill="#34A853"/>
<path d="M21.844 10.5488H25.9175V8.36694H21.844V10.5488Z" fill="#34A853"/>
<path d="M16.6598 6.18532C17.7847 6.18532 18.6965 5.2899 18.6965 4.18531C18.6965 3.08074 17.7847 2.1853 16.6598 2.1853C15.5349 2.1853 14.623 3.08074 14.623 4.18531C14.623 5.2899 15.5349 6.18532 16.6598 6.18532Z" fill="#FF7602"/>
<path d="M16.6598 4.00344C17.7847 4.00344 18.6965 3.108 18.6965 2.00343C18.6965 0.898855 17.7847 0.00341797 16.6598 0.00341797C15.5349 0.00341797 14.623 0.898855 14.623 2.00343C14.623 3.108 15.5349 4.00344 16.6598 4.00344Z" fill="#FF7602"/>
<path d="M14.623 4.18526H18.6965V2.00342H14.623V4.18526Z" fill="#FF7602"/>
<path d="M16.6598 32.0034C17.7847 32.0034 18.6965 31.108 18.6965 30.0034C18.6965 28.8988 17.7847 28.0034 16.6598 28.0034C15.5349 28.0034 14.623 28.8988 14.623 30.0034C14.623 31.108 15.5349 32.0034 16.6598 32.0034Z" fill="#FF7602"/>
<path d="M16.6598 29.822C17.7847 29.822 18.6965 28.9266 18.6965 27.822C18.6965 26.7174 17.7847 25.822 16.6598 25.822C15.5349 25.822 14.623 26.7174 14.623 27.822C14.623 28.9266 15.5349 29.822 16.6598 29.822Z" fill="#FF7602"/>
<path d="M14.623 30.0036H18.6965V27.8218H14.623V30.0036Z" fill="#FF7602"/>
<path d="M23.8809 25.6402C25.0058 25.6402 25.9176 24.7448 25.9176 23.6402C25.9176 22.5357 25.0058 21.6401 23.8809 21.6401C22.7561 21.6401 21.8442 22.5357 21.8442 23.6402C21.8442 24.7448 22.7561 25.6402 23.8809 25.6402Z" fill="#34A853"/>
<path d="M23.8809 18.5491C25.0058 18.5491 25.9176 17.6537 25.9176 16.5491C25.9176 15.4445 25.0058 14.5491 23.8809 14.5491C22.7561 14.5491 21.8442 15.4445 21.8442 16.5491C21.8442 17.6537 22.7561 18.5491 23.8809 18.5491Z" fill="#34A853"/>
<path d="M21.844 23.6401H25.9175V16.5491H21.844V23.6401Z" fill="#34A853"/>
<path d="M16.6598 12.1854C17.7847 12.1854 18.6965 11.2899 18.6965 10.1854C18.6965 9.08078 17.7847 8.1853 16.6598 8.1853C15.5349 8.1853 14.623 9.08078 14.623 10.1854C14.623 11.2899 15.5349 12.1854 16.6598 12.1854Z" fill="#FF7602"/>
<path d="M16.6598 23.822C17.7847 23.822 18.6965 22.9266 18.6965 21.822C18.6965 20.7175 17.7847 19.822 16.6598 19.822C15.5349 19.822 14.623 20.7175 14.623 21.822C14.623 22.9266 15.5349 23.822 16.6598 23.822Z" fill="#FF7602"/>
</svg>
